<?xml version="1.0" encoding="utf-8"?>
<!-- Generator: Adobe Illustrator 27.5.0, SVG Export Plug-In . SVG Version: 6.00 Build 0)  -->
<svg version="1.1" xmlns="http://www.w3.org/2000/svg" xmlns:xlink="http://www.w3.org/1999/xlink" x="0px" y="0px"
	 viewBox="0 0 3710 3710" style="enable-background:new 0 0 3710 3710;" xml:space="preserve">
<g id="Background">
	<g>
		<g>
			<rect style="fill:#FFFFFF;" width="3710" height="3710"/>
		</g>
	</g>
</g>
<g id="Illustration">
	<g>
		<linearGradient id="SVGID_1_" gradientUnits="userSpaceOnUse" x1="3332.8108" y1="3519.8108" x2="1339.7504" y2="1368.5707">
			<stop  offset="0" style="stop-color:#DAE3FE"/>
			<stop  offset="1" style="stop-color:#E9EFFD"/>
		</linearGradient>
		<path style="fill:url(#SVGID_1_);" d="M3055.065,2293.9c-273.861,640.118-996.766,915.064-1563.173,868.185
			c-154.652-12.8-465.816-38.553-708.775-268.312C316.531,2452.537,388.389,1530.23,835.046,987.226
			c57.52-69.927,455.666-538.435,1076.103-532.164c454.25,4.592,773.083,261.191,811.852,293.159
			c48.975,40.383,156.996,136.347,254.348,288.588C3206.093,1394.521,3226.2,1893.889,3055.065,2293.9z"/>
		<g>
			<g>
				<g style="opacity:0.3;">
					<path style="fill:#91B3FA;" d="M1296.32,1094.828c5.178-1.281,10.595,1.532,12.447,6.659
						c4.054,11.211,7.68,22.766,10.779,34.341c1.508,5.632-1.834,11.419-7.464,12.927c-0.068,0.017-0.134,0.033-0.2,0.049
						c-5.567,1.377-11.236-1.951-12.725-7.516c-2.943-10.998-6.389-21.973-10.239-32.623c-1.982-5.48,0.854-11.534,6.338-13.515
						C1295.608,1095.022,1295.964,1094.917,1296.32,1094.828z M1317.741,1184.245c0.4-0.099,0.812-0.176,1.232-0.229
						c5.783-0.726,11.062,3.375,11.788,9.158c1.489,11.88,2.485,23.941,2.959,35.847c0.232,5.825-4.28,10.717-10.125,10.969
						c-5.825,0.231-10.733-4.306-10.965-10.126c-0.451-11.317-1.398-22.775-2.815-34.065
						C1309.142,1190.436,1312.62,1185.512,1317.741,1184.245z M1318.941,1276.154c1.141-0.282,2.349-0.377,3.585-0.254
						c5.799,0.583,10.032,5.753,9.452,11.553c-1.187,11.888-2.908,23.874-5.115,35.623c-1.08,5.729-6.597,9.494-12.321,8.425
						c-5.728-1.076-9.501-6.594-8.425-12.321c2.096-11.157,3.729-22.536,4.858-33.827
						C1311.43,1280.789,1314.73,1277.195,1318.941,1276.154z M1299.555,1366.042c1.885-0.466,3.921-0.418,5.897,0.249
						c5.523,1.861,8.491,7.85,6.63,13.373c-3.823,11.33-8.179,22.63-12.949,33.587c-2.33,5.337-8.545,7.784-13.891,5.462
						c-5.343-2.327-7.788-8.546-5.462-13.891c4.531-10.405,8.671-21.138,12.299-31.905
						C1293.275,1369.371,1296.171,1366.879,1299.555,1366.042z M1260.611,1449.349c2.644-0.654,5.536-0.291,8.042,1.243
						c4.974,3.042,6.539,9.539,3.496,14.509c-6.224,10.174-12.971,20.226-20.056,29.87c-3.447,4.701-10.053,5.715-14.753,2.261
						c-4.697-3.45-5.709-10.055-2.259-14.756c6.736-9.167,13.149-18.721,19.063-28.389
						C1255.652,1451.62,1258.01,1449.992,1260.611,1449.349z M1204.213,1521.96c3.424-0.847,7.193,0.038,9.906,2.68
						c4.177,4.068,4.266,10.747,0.202,14.925c-8.332,8.559-17.138,16.87-26.17,24.694c-4.409,3.817-11.072,3.338-14.889-1.069
						c-3.815-4.403-3.338-11.07,1.067-14.886c8.583-7.436,16.948-15.328,24.865-23.462
						C1200.62,1523.376,1202.366,1522.417,1204.213,1521.96z M834.823,1639.233c1.419-0.351,2.93-0.411,4.46-0.127
						c11.148,2.075,22.537,3.691,33.849,4.8c5.8,0.569,10.042,5.733,9.472,11.531c-0.567,5.802-5.731,10.043-11.533,9.475
						c-11.913-1.168-23.909-2.868-35.648-5.052c-5.732-1.067-9.512-6.578-8.445-12.308
						C827.758,1643.351,830.929,1640.197,834.823,1639.233z M1133.172,1580.23c4.25-1.052,8.882,0.631,11.394,4.512
						c3.169,4.894,1.77,11.428-3.122,14.596c-10.028,6.494-20.461,12.63-31.01,18.238c-5.158,2.712-11.538,0.786-14.275-4.363
						c-2.736-5.146-0.782-11.537,4.365-14.275c10.018-5.324,19.924-11.151,29.448-17.317
						C1130.984,1580.967,1132.066,1580.504,1133.172,1580.23z M926.532,1645.755c0.676-0.167,1.378-0.273,2.102-0.303
						c11.337-0.473,22.803-1.446,34.08-2.881c5.783-0.734,11.068,3.356,11.804,9.137c0.734,5.781-3.346,11.093-9.137,11.803
						c-11.866,1.509-23.932,2.532-35.86,3.033c-5.824,0.243-10.745-4.281-10.987-10.104
						C918.318,1651.342,921.761,1646.935,926.532,1645.755z M1050.895,1621.171c5.171-1.279,10.58,1.524,12.44,6.639
						c1.993,5.479-0.833,11.533-6.31,13.529c-11.216,4.079-22.759,7.729-34.309,10.841c-0.071,0.022-0.145,0.04-0.217,0.058
						c-5.559,1.375-11.221-1.942-12.72-7.496c-1.518-5.63,1.812-11.422,7.442-12.939c10.971-2.96,21.934-6.428,32.59-10.305
						C1050.17,1621.371,1050.533,1621.26,1050.895,1621.171z"/>
					<path style="fill:#91B3FA;" d="M763.489,1619.139c2.017-0.499,4.203-0.411,6.292,0.388c5.083,1.945,10.29,3.812,15.48,5.56
						c5.524,1.857,8.498,7.844,6.639,13.366c-1.856,5.526-7.844,8.506-13.369,6.637c-5.459-1.835-10.935-3.801-16.285-5.845
						c-5.443-2.081-8.172-8.184-6.091-13.625C757.437,1622.262,760.247,1619.941,763.489,1619.139z"/>
				</g>
				<g style="opacity:0.3;">
					<path style="fill:#91B3FA;" d="M531.656,1395.998c4.945-1.223,10.184,1.286,12.239,6.124
						c2.124,5.008,4.391,10.058,6.735,15.003c2.497,5.268,0.251,11.562-5.016,14.058c-5.29,2.506-11.563,0.249-14.059-5.016
						c-2.467-5.208-4.855-10.524-7.094-15.798c-2.277-5.366,0.227-11.561,5.592-13.84
						C530.582,1396.307,531.119,1396.131,531.656,1395.998z"/>
					<path style="fill:#91B3FA;" d="M810.796,836.181c4.714-1.166,9.466-2.257,14.254-3.272c5.703-1.207,11.305,2.435,12.514,8.137
						c1.209,5.702-2.456,11.332-8.135,12.516c-11.051,2.343-21.981,5.128-32.61,8.318c-5.591,1.668-11.466-1.491-13.143-7.073
						c-1.677-5.586,1.492-11.471,7.075-13.145C797.326,839.688,804.071,837.845,810.796,836.181z M880.223,825.108
						c0.572-0.141,1.166-0.237,1.776-0.282c11.744-0.863,23.656-1.236,35.402-1.11c5.827,0.062,10.502,4.838,10.44,10.663
						c-0.063,5.83-4.846,10.521-10.668,10.441c-11.157-0.119-22.471,0.238-33.632,1.054c-5.812,0.427-10.87-3.94-11.297-9.751
						C871.863,830.918,875.323,826.32,880.223,825.108z M738.791,861.279c4.83-1.195,9.979,1.171,12.122,5.86
						c2.423,5.304,0.088,11.564-5.214,13.989c-10.142,4.632-20.223,9.764-29.965,15.258c-5.083,2.854-11.516,1.065-14.377-4.012
						c-2.862-5.08-1.065-11.517,4.013-14.379c10.259-5.783,20.878-11.187,31.557-16.068
						C737.538,861.648,738.163,861.434,738.791,861.279z M970.663,828.465c1.301-0.322,2.684-0.396,4.09-0.188
						c11.636,1.738,23.338,3.994,34.779,6.706c5.671,1.345,9.178,7.03,7.833,12.701c-1.344,5.675-7.027,9.183-12.703,7.836
						c-10.864-2.574-21.975-4.718-33.026-6.367c-5.765-0.858-9.74-6.233-8.879-11.996
						C963.407,832.8,966.635,829.462,970.663,828.465z M661.213,907.737c3.962-0.98,8.308,0.399,10.938,3.855
						c3.53,4.639,2.631,11.261-2.008,14.792c-8.87,6.747-17.574,13.971-25.876,21.47c-4.325,3.907-11,3.571-14.907-0.759
						c-3.905-4.326-3.566-10.996,0.759-14.903c8.739-7.895,17.903-15.501,27.243-22.607
						C658.543,908.687,659.857,908.073,661.213,907.737z M595.706,970.095c3.167-0.784,6.653-0.092,9.341,2.169
						c4.458,3.756,5.029,10.414,1.273,14.872c-7.2,8.551-14.125,17.505-20.58,26.611c-3.364,4.761-9.95,5.885-14.713,2.51
						c-4.756-3.372-5.878-9.957-2.508-14.715c6.794-9.584,14.08-19.006,21.658-28.003
						C591.668,971.769,593.617,970.612,595.706,970.095z M545.352,1045.251c2.409-0.596,5.035-0.35,7.41,0.889
						c5.168,2.693,7.174,9.068,4.48,14.236c-5.173,9.922-9.983,20.167-14.296,30.458c-2.253,5.373-8.432,7.909-13.814,5.651
						c-5.374-2.255-7.906-8.437-5.652-13.815c4.541-10.828,9.602-21.614,15.044-32.053
						C539.981,1047.824,542.515,1045.953,545.352,1045.251z M512.59,1129.593c1.669-0.413,3.461-0.423,5.241,0.05
						c5.633,1.499,8.982,7.278,7.483,12.911c-2.877,10.807-5.323,21.855-7.271,32.844c-1.018,5.739-6.503,9.568-12.233,8.552
						c-5.741-1.017-9.568-6.496-8.55-12.235c2.052-11.575,4.628-23.212,7.656-34.587
						C505.943,1133.272,508.974,1130.488,512.59,1129.593z M499.137,1219.105c0.938-0.232,1.926-0.336,2.94-0.298
						c5.824,0.22,10.368,5.122,10.146,10.944c-0.421,11.146-0.373,22.457,0.148,33.625c0.271,5.824-4.248,10.76-10.052,11.032
						c-5.823,0.272-10.763-4.23-11.034-10.054c-0.547-11.756-0.599-23.665-0.153-35.399
						C491.313,1224.146,494.687,1220.206,499.137,1219.105z M505.674,1309.325c0.21-0.052,0.424-0.096,0.639-0.137
						c5.732-1.053,11.234,2.742,12.285,8.474c1.486,8.093,3.239,16.233,5.211,24.206c0.714,2.885,1.461,5.758,2.232,8.612
						c1.522,5.628-1.805,11.425-7.432,12.944c-5.667,1.652-11.421-1.804-12.943-7.428c-0.814-3.006-1.596-6.022-2.348-9.06
						c-2.074-8.384-3.918-16.953-5.48-25.464C496.824,1315.956,500.301,1310.654,505.674,1309.325z"/>
					<path style="fill:#91B3FA;" d="M1058.376,851.753c2.037-0.504,4.241-0.408,6.344,0.406c5.327,2.067,10.711,4.285,16.003,6.594
						c5.344,2.331,7.786,8.551,5.455,13.893c-2.333,5.342-8.546,7.788-13.893,5.455c-5.027-2.192-10.141-4.299-15.199-6.263
						c-5.432-2.105-8.13-8.219-6.022-13.655C1052.356,854.852,1055.154,852.55,1058.376,851.753z"/>
				</g>
				<g>
					<path style="fill:#91B3FA;" d="M1073.95,974.007c-1.683-1.263-3.983-1.32-5.725-0.14l-49.722,33.647
						c-25.672-11.272-53.326-18.532-82.066-21.083l-27.367-53.393c-0.96-1.873-3.003-2.93-5.086-2.634l-71.293,10.161
						c-2.084,0.298-3.749,1.884-4.148,3.949l-11.359,58.913c-26.884,10.48-51.408,25.176-72.907,43.172l-57.143-18.416
						c-2.003-0.645-4.194,0.051-5.458,1.734l-43.227,57.597c-1.264,1.684-1.32,3.984-0.14,5.726l33.647,49.722
						c-11.272,25.671-18.532,53.326-21.083,82.066l-53.394,27.368c-1.873,0.959-2.93,3.001-2.633,5.085l10.161,71.294
						c0.297,2.083,1.883,3.749,3.95,4.147l58.913,11.36c10.479,26.884,25.174,51.408,43.171,72.907l-18.416,57.144
						c-0.645,2.002,0.051,4.194,1.734,5.457l57.597,43.226c1.683,1.264,3.983,1.32,5.725,0.141l49.722-33.648
						c25.671,11.273,53.326,18.533,82.066,21.083l27.367,53.395c0.96,1.872,3.002,2.93,5.085,2.634l71.294-10.162
						c2.084-0.296,3.749-1.882,4.147-3.949l11.359-58.913c26.884-10.478,51.408-25.175,72.908-43.172l57.142,18.416
						c2.003,0.646,4.196-0.051,5.459-1.734l43.226-57.597c1.263-1.683,1.319-3.982,0.141-5.725l-33.647-49.722
						c11.273-25.672,18.532-53.326,21.082-82.067l53.394-27.367c1.872-0.959,2.93-3.002,2.632-5.086l-10.161-71.293
						c-0.297-2.083-1.883-3.749-3.949-4.148l-58.913-11.359c-10.479-26.883-25.176-51.407-43.171-72.907l18.415-57.143
						c0.646-2.003-0.051-4.194-1.734-5.459L1073.95,974.007z"/>
					<g>
						<path style="fill:#BDD0FB;" d="M895.614,1178.228c34.253-8.474,70.553,9.237,84.321,42.839
							c15.133,36.938-2.605,79.294-39.538,94.428c-17.893,7.336-37.57,7.256-55.401-0.211
							c-17.835-7.466-31.695-21.433-39.025-39.326c-15.133-36.938,2.605-79.294,39.538-94.428
							C888.84,1180.167,892.218,1179.068,895.614,1178.228z M926.171,1302.426c2.645-0.654,5.257-1.504,7.825-2.556
							c28.318-11.601,41.916-44.083,30.315-72.398c-11.603-28.319-44.078-41.932-72.4-30.317
							c-28.318,11.601-41.916,44.082-30.315,72.398c5.622,13.72,16.247,24.427,29.922,30.153
							C902.632,1304.359,914.683,1305.268,926.171,1302.426z"/>
					</g>
					<path style="fill:#BDD0FB;" d="M869.068,1077.092c5.883-1.455,11.873-2.623,17.955-3.491l0,0
						c1.914-0.274,3.833-0.515,5.755-0.727c9.479-1.041,19.025-1.327,28.492-0.853c0.129,0.006,0.258,0.013,0.387,0.019
						c0.366,0.02,0.732,0.04,1.099,0.064c0.713,0.04,1.426,0.089,2.136,0.138c1.871,0.132,3.371,1.464,3.801,3.192
						c0.104,0.42,0.144,0.865,0.112,1.319c-0.164,2.326-2.187,4.07-4.509,3.91c-11.968-0.849-24.106-0.411-36.079,1.298
						c-59.48,8.468-107.392,47.026-130.544,98.061c-12.881,28.384-18.099,60.631-13.382,93.712
						c0.826,5.801,1.938,11.518,3.329,17.129c9.347,37.762,31.214,70.885,62.748,94.549c36.221,27.185,80.861,38.637,125.693,32.247
						c92.591-13.207,157.118-99.224,143.926-191.772c-0.813-5.706-1.912-11.351-3.289-16.909
						c-5.964-24.087-17.131-46.602-32.781-65.889c-0.404-0.499-0.676-1.06-0.819-1.645c-0.38-1.537,0.125-3.229,1.438-4.292
						c1.816-1.464,4.468-1.199,5.939,0.62c16.43,20.249,28.158,43.887,34.418,69.175c1.446,5.834,2.599,11.758,3.454,17.747
						c13.85,97.167-53.961,187.48-151.093,201.326c-47.068,6.709-93.929-5.315-131.954-33.854
						c-33.106-24.843-56.061-59.616-65.875-99.258c-1.457-5.891-2.625-11.892-3.495-17.979
						c-6.708-47.07,5.314-93.932,33.851-131.957C794.631,1109.859,829.416,1086.902,869.068,1077.092z"/>
				</g>
			</g>
			<g>
				<g style="opacity:0.3;">
					<path style="fill:#91B3FA;" d="M1579.146,738.34c2.738-0.677,5.701,0.485,7.194,3.047c2.789,4.78,5.471,9.71,7.97,14.652
						c1.624,3.212,0.338,7.13-2.876,8.758c-3.211,1.64-7.134,0.335-8.758-2.876c-2.381-4.71-4.937-9.409-7.598-13.971
						c-1.814-3.106-0.762-7.097,2.346-8.915C1577.977,738.714,1578.556,738.486,1579.146,738.34z"/>
					<path style="fill:#91B3FA;" d="M1600.329,783.79c3.207-0.793,6.558,0.955,7.694,4.129c3.216,8.969,6.007,18.207,8.294,27.452
						c0.482,1.947,0.943,3.905,1.387,5.874c0.788,3.516-1.636,6.917-4.927,7.797c-3.513,0.79-7-1.416-7.793-4.925
						c-0.423-1.882-0.863-3.754-1.323-5.614c-2.182-8.818-4.844-17.629-7.907-26.183c-1.216-3.391,0.547-7.12,3.934-8.338
						C1599.903,783.909,1600.116,783.843,1600.329,783.79z M1615.19,849.823c0.299-0.074,0.61-0.131,0.923-0.163
						c3.584-0.356,6.779,2.258,7.137,5.841c1.151,11.493,1.598,23.161,1.328,34.671c-0.083,3.601-3.088,6.443-6.669,6.365
						c-3.602-0.086-6.447-3.067-6.365-6.668c0.257-10.982-0.171-22.11-1.267-33.072
						C1609.953,853.531,1612.094,850.589,1615.19,849.823z M1613.595,917.486c0.803-0.199,1.657-0.245,2.525-0.12
						c3.56,0.529,6.015,3.85,5.486,7.411c-1.703,11.406-4.135,22.834-7.24,33.957c-0.967,3.473-4.553,5.494-8.032,4.525
						c-3.465-0.966-5.493-4.563-4.527-8.028c2.959-10.608,5.282-21.498,6.902-32.378
						C1609.112,920.162,1611.107,918.102,1613.595,917.486z M1595.412,982.69c1.311-0.324,2.73-0.243,4.07,0.311
						c3.321,1.388,4.893,5.209,3.504,8.53c-4.454,10.663-9.607,21.138-15.323,31.143c-1.788,3.124-5.774,4.203-8.893,2.423
						c-3.127-1.784-4.213-5.764-2.427-8.895c5.449-9.532,10.366-19.53,14.612-29.695
						C1591.784,984.525,1593.475,983.169,1595.412,982.69z M1561.858,1041.473c1.829-0.453,3.842-0.111,5.471,1.105
						c2.883,2.152,3.473,6.236,1.322,9.122c-6.907,9.244-14.448,18.152-22.417,26.472c-2.489,2.609-6.616,2.693-9.216,0.201
						c-2.6-2.491-2.69-6.62-0.201-9.216c7.603-7.941,14.797-16.436,21.385-25.259
						C1559.141,1042.644,1560.446,1041.822,1561.858,1041.473z M1515.059,1090.325c2.37-0.586,4.976,0.193,6.623,2.211
						c2.273,2.788,1.852,6.893-0.935,9.169c-8.945,7.289-18.431,14.089-28.191,20.202c-3.066,1.906-7.075,0.983-8.987-2.066
						c-1.911-3.048-0.986-7.074,2.063-8.983c9.309-5.831,18.349-12.31,26.876-19.259
						C1513.28,1090.968,1514.153,1090.549,1515.059,1090.325z M1457.751,1126.242c2.966-0.734,6.132,0.706,7.468,3.576
						c1.519,3.264,0.105,7.142-3.158,8.664c-10.426,4.855-21.294,9.117-32.303,12.674c-3.452,1.051-7.105-0.781-8.208-4.206
						c-1.107-3.425,0.775-7.098,4.199-8.207c10.504-3.386,20.869-7.452,30.809-12.082
						C1456.95,1126.479,1457.349,1126.342,1457.751,1126.242z M1359.704,1151.351c0.365-0.09,0.746-0.152,1.137-0.177
						c9.483-0.634,19.097-1.799,28.578-3.463c1.438-0.244,2.846-0.501,4.248-0.775c3.538-0.678,6.955,1.63,7.636,5.166
						c0.689,3.542-1.626,7.065-5.163,7.639c-1.497,0.285-2.992,0.563-4.5,0.818c-9.906,1.735-19.985,2.957-29.929,3.62
						c-3.594,0.24-6.698-2.475-6.938-6.068C1354.559,1154.913,1356.692,1152.097,1359.704,1151.351z"/>
				</g>
				<g style="opacity:0.3;">
					<path style="fill:#91B3FA;" d="M1271.743,610.885c3.454-0.855,6.967,1.228,7.87,4.683c0.91,3.48-1.175,7.045-4.659,7.953
						c-10.487,2.739-20.895,6.141-30.936,10.113c-3.338,1.285-7.137-0.313-8.461-3.664c-1.325-3.351,0.32-7.135,3.664-8.461
						c10.532-4.159,21.443-7.731,32.435-10.602C1271.684,610.899,1271.715,610.891,1271.743,610.885z M1304.458,604.411
						c0.229-0.057,0.457-0.1,0.695-0.132c11.244-1.536,22.696-2.402,34.036-2.578c3.601-0.051,6.562,2.816,6.617,6.416
						c0.059,3.606-2.836,6.558-6.414,6.623c-10.822,0.166-21.749,0.994-32.479,2.455c-3.565,0.488-6.852-2.01-7.338-5.575
						C1299.12,608.282,1301.269,605.199,1304.458,604.411z M1209.854,635.377c2.806-0.694,5.835,0.55,7.286,3.208
						c1.722,3.154,0.56,7.114-2.6,8.84c-9.517,5.201-18.797,11.018-27.583,17.304c-2.943,2.085-7,1.417-9.093-1.515
						c-2.094-2.925-1.418-7,1.51-9.095c9.211-6.587,18.941-12.686,28.919-18.133C1208.799,635.71,1209.323,635.508,1209.854,635.377
						z M1371.048,603.426c0.719-0.178,1.482-0.236,2.263-0.154c11.291,1.214,22.621,3.139,33.671,5.723
						c3.507,0.818,5.683,4.325,4.866,7.833c-0.821,3.495-4.328,5.674-7.831,4.862c-10.537-2.462-21.336-4.295-32.102-5.455
						c-3.578-0.387-6.17-3.601-5.783-7.179C1366.434,606.259,1368.465,604.065,1371.048,603.426z M1155.726,674.101
						c2.24-0.554,4.707,0.101,6.373,1.918c2.438,2.656,2.258,6.779-0.393,9.212c-7.973,7.31-15.578,15.186-22.608,23.417
						c-2.341,2.743-6.456,3.06-9.193,0.72c-2.736-2.339-3.06-6.456-0.72-9.193c7.375-8.625,15.348-16.886,23.704-24.554
						C1153.723,674.858,1154.703,674.354,1155.726,674.101z M1112.465,724.681c1.715-0.424,3.592-0.154,5.176,0.897
						c2.998,1.993,3.816,6.04,1.823,9.037c-6.001,9.033-11.507,18.507-16.364,28.155c-1.62,3.221-5.543,4.513-8.754,2.894
						c-3.217-1.618-4.51-5.534-2.892-8.747c5.091-10.119,10.86-20.052,17.149-29.516
						C1109.543,725.988,1110.939,725.058,1112.465,724.681z M1082.565,784.173c1.205-0.298,2.506-0.26,3.763,0.196
						c3.389,1.214,5.149,4.95,3.933,8.339c-3.671,10.2-6.741,20.718-9.128,31.257c-0.799,3.503-4.289,5.711-7.798,4.913
						c-3.512-0.797-5.712-4.285-4.917-7.8c2.507-11.047,5.725-22.08,9.569-32.782
						C1078.756,786.164,1080.52,784.679,1082.565,784.173z"/>
					<path style="fill:#91B3FA;" d="M1436.184,618.663c1.221-0.302,2.541-0.255,3.81,0.212c5.237,1.924,10.439,4.014,15.467,6.206
						c3.298,1.44,4.809,5.283,3.37,8.584c-1.446,3.289-5.281,4.802-8.584,3.369c-4.793-2.093-9.758-4.085-14.755-5.924
						c-3.38-1.242-5.11-4.992-3.867-8.368C1432.403,620.635,1434.155,619.166,1436.184,618.663z"/>
				</g>
				<g>
					<path style="fill:#91B3FA;" d="M1451.148,701.711c-1.126-0.845-2.665-0.883-3.831-0.094l-33.272,22.515
						c-17.178-7.543-35.683-12.401-54.915-14.108l-18.313-35.728c-0.642-1.253-2.009-1.961-3.403-1.762l-47.706,6.799
						c-1.394,0.199-2.509,1.26-2.776,2.643l-7.601,39.422c-17.989,7.013-34.4,16.846-48.786,28.889l-38.237-12.323
						c-1.34-0.431-2.807,0.034-3.653,1.161l-28.925,38.541c-0.845,1.127-0.883,2.665-0.094,3.831l22.515,33.271
						c-7.543,17.178-12.401,35.683-14.108,54.915l-35.729,18.312c-1.253,0.643-1.961,2.009-1.762,3.403l6.8,47.707
						c0.199,1.395,1.26,2.509,2.643,2.775l39.422,7.602c7.012,17.99,16.846,34.4,28.888,48.786l-12.323,38.239
						c-0.431,1.34,0.034,2.807,1.16,3.651l38.542,28.926c1.126,0.845,2.665,0.882,3.831,0.094l33.272-22.516
						c17.178,7.544,35.683,12.401,54.915,14.108l18.313,35.729c0.642,1.253,2.008,1.961,3.403,1.762l47.707-6.8
						c1.394-0.198,2.508-1.26,2.775-2.643l7.601-39.422c17.99-7.012,34.401-16.846,48.787-28.889l38.237,12.323
						c1.341,0.432,2.808-0.034,3.653-1.16l28.925-38.541c0.845-1.126,0.883-2.665,0.094-3.831l-22.515-33.272
						c7.543-17.178,12.401-35.683,14.107-54.915l35.729-18.313c1.252-0.642,1.961-2.009,1.761-3.403l-6.799-47.706
						c-0.199-1.394-1.26-2.509-2.643-2.776l-39.422-7.602c-7.012-17.989-16.846-34.399-28.888-48.786l12.323-38.238
						c0.432-1.34-0.034-2.807-1.16-3.653L1451.148,701.711z"/>
					<g>
						<path style="fill:#BDD0FB;" d="M1331.674,837.501c10.208-2.526,20.914-1.718,30.789,2.416
							c12.148,5.087,21.588,14.602,26.58,26.79c10.307,25.15-1.772,54.002-26.929,64.318c-25.21,10.277-54.017-1.778-64.323-26.934
							c-4.996-12.188-4.944-25.592,0.144-37.736c5.086-12.151,14.6-21.593,26.792-26.584
							C1327.004,838.839,1329.328,838.081,1331.674,837.501z M1352.108,920.614c1.703-0.421,3.393-0.971,5.064-1.653
							c18.504-7.588,27.389-28.81,19.807-47.316c-3.673-8.961-10.616-15.965-19.55-19.702c-8.94-3.743-18.793-3.771-27.763-0.109
							l0,0c-8.964,3.673-15.964,10.619-19.705,19.552c-3.743,8.94-3.78,18.798-0.105,27.766
							C1316.751,915.984,1334.944,924.861,1352.108,920.614z"/>
					</g>
					<path style="fill:#BDD0FB;" d="M1313.288,767.081c4.004-0.991,8.09-1.785,12.257-2.383c8.276-1.182,16.68-1.523,25-1.011
						c0.374,0.026,0.747,0.052,1.121,0.077c2.89,0.203,5.205,2.26,5.869,4.929c0.16,0.649,0.222,1.335,0.172,2.036
						c-0.253,3.591-3.378,6.279-6.963,6.038c-7.764-0.552-15.621-0.266-23.354,0.84l-0.003,0.001
						c-0.425,0.059-0.851,0.126-1.271,0.19c-18.279,2.784-35.172,10.02-49.518,20.913c-7.786,5.914-14.823,12.914-20.914,20.88
						c-0.05,0.065-0.099,0.129-0.149,0.194c-0.15,0.202-0.302,0.396-0.449,0.597c-17.596,23.45-25.012,52.348-20.874,81.372
						c0.533,3.757,1.254,7.454,2.153,11.088c6.051,24.445,20.209,45.888,40.624,61.213c23.45,17.597,52.347,25.006,81.368,20.869
						c29.003-4.145,54.7-19.33,72.301-42.774c17.596-23.449,25.012-52.348,20.874-81.371c-0.524-3.693-1.237-7.347-2.127-10.943
						c-3.862-15.597-11.09-30.17-21.222-42.654c-0.624-0.77-1.045-1.637-1.265-2.54c-0.587-2.373,0.193-4.986,2.219-6.628
						c2.802-2.26,6.899-1.844,9.172,0.958c11.335,13.97,19.426,30.278,23.748,47.721c0.997,4.029,1.794,8.114,2.383,12.244
						c4.628,32.476-3.667,64.806-23.357,91.042c-19.689,26.23-48.393,43.247-80.884,47.855c-32.472,4.63-64.801-3.661-91.036-23.356
						c-22.841-17.138-38.678-41.129-45.448-68.479c-1.004-4.06-1.813-8.201-2.412-12.4
						C1212.347,840.726,1252.92,782.016,1313.288,767.081z"/>
				</g>
			</g>
		</g>
		<g>
			
				<linearGradient id="SVGID_00000160174624896637200310000002696945698167256765_" gradientUnits="userSpaceOnUse" x1="3266.8257" y1="961.2632" x2="2377.7239" y2="2829.8843">
				<stop  offset="0" style="stop-color:#4F52FF"/>
				<stop  offset="1" style="stop-color:#4042E2"/>
			</linearGradient>
			<path style="fill:url(#SVGID_00000160174624896637200310000002696945698167256765_);" d="M2221.839,2733.768l522.097-1000.228
				h-106.968c-19.725,0-30.573-22.933-18.062-38.182l556.451-678.201c24.117-29.394,71.757-10.751,69.518,27.204l-39.115,663.198
				c-2.24,37.966-35.904,66.262-73.688,61.937l-74.579-8.535l-518.025,1121.857c-13.485,29.205-42.719,47.905-74.886,47.905
				h-179.541L2221.839,2733.768z"/>
			
				<linearGradient id="SVGID_00000155837001930360203050000004991490575097058211_" gradientUnits="userSpaceOnUse" x1="2483.6467" y1="2986.9165" x2="1845.7061" y2="2017.449">
				<stop  offset="0" style="stop-color:#4F52FF"/>
				<stop  offset="1" style="stop-color:#4042E2"/>
			</linearGradient>
			<path style="fill:url(#SVGID_00000155837001930360203050000004991490575097058211_);" d="M1790.178,2032.263l368.59,818.776
				c21.832,48.497,70.074,79.683,123.257,79.683h190.016c25.211,0,48.44-13.677,60.669-35.723l6.758-12.182l0,0
				c-20.416,0-39.109-11.446-48.389-29.63l-491.103-962.243L1790.178,2032.263z"/>
			
				<linearGradient id="SVGID_00000062152828572038493490000012427827635457948804_" gradientUnits="userSpaceOnUse" x1="1979.6698" y1="1769.0165" x2="1140.7999" y2="2884.1609">
				<stop  offset="0" style="stop-color:#4F52FF"/>
				<stop  offset="1" style="stop-color:#4042E2"/>
			</linearGradient>
			<path style="fill:url(#SVGID_00000062152828572038493490000012427827635457948804_);" d="M2049.581,1988.137L2049.581,1988.137
				c-36.961-29.187-90.965-20.606-117.059,18.599l-541.931,814.21c-43.404,65.212-116.549,104.393-194.884,104.393h-76.256
				l-62.06-178.774c0,0,503.808-772.498,633.662-889.355c0,0,129.316-116.548,256.819-28.429
				c33.685,23.281,59.261,56.507,74.882,94.358L2049.581,1988.137z"/>
			
				<linearGradient id="SVGID_00000183233176143588557650000003049753957444543394_" gradientUnits="userSpaceOnUse" x1="993.9587" y1="2623.4758" x2="320.8507" y2="1789.6263">
				<stop  offset="0" style="stop-color:#4F52FF"/>
				<stop  offset="1" style="stop-color:#4042E2"/>
			</linearGradient>
			<path style="fill:url(#SVGID_00000183233176143588557650000003049753957444543394_);" d="M467.969,2265.757
				c0,0,90.715-113.39,266.502-131.029c0,0,83.491,28.445,249.823,326.492c166.333,298.047,276.74,433.962,406.297,359.726
				l-10.726,17.809c-35.348,58.691-98.857,94.579-167.371,94.579h-71.654c-78.891,0-147.4-121.514-193.47-185.557
				C817.913,2567.815,547.493,2293.694,467.969,2265.757z"/>
			<path style="fill:#BDD0FB;" d="M3182.092,1253.916c-0.19,0-0.379-0.01-0.572-0.033c-2.757-0.311-4.739-2.8-4.425-5.557
				l3.666-32.382c0.311-2.757,2.77-4.745,5.557-4.427c2.757,0.312,4.739,2.801,4.425,5.558l-3.666,32.382
				C3186.785,1252.022,3184.614,1253.916,3182.092,1253.916z"/>
			<path style="fill:#BDD0FB;" d="M2717.579,1662.685c-1.069,0-2.149-0.34-3.061-1.043c-2.198-1.691-2.61-4.845-0.916-7.045
				l459.493-597.045c5.383-6.991,14.145-9.368,22.324-6.065c8.179,3.308,12.827,11.113,11.833,19.881l-8.107,71.567
				c-0.314,2.757-2.806,4.736-5.557,4.425c-2.757-0.312-4.739-2.8-4.425-5.557l8.107-71.566c0.573-5.051-2.528-8.188-5.619-9.437
				c-3.084-1.244-7.493-1.151-10.596,2.88l-459.493,597.045C2720.575,1662.011,2719.084,1662.685,2717.579,1662.685z"/>
			<path style="fill:#BDD0FB;" d="M1675.176,2288.589c-0.968,0-1.946-0.278-2.806-0.859c-2.299-1.552-2.907-4.675-1.354-6.974
				l237.638-352.246c8.497-12.593,22.615-19.407,37.757-18.277c15.149,1.15,28.07,10.034,34.569,23.765
				c1.187,2.507,0.118,5.502-2.391,6.69c-2.502,1.187-5.504,0.116-6.688-2.392c-4.935-10.426-14.747-17.17-26.249-18.043
				c-11.561-0.875-22.223,4.317-28.672,13.876l-237.638,352.246C1678.375,2287.814,1676.789,2288.589,1675.176,2288.589z"/>
			<g>
				<path style="fill:#FFFFFF;" d="M1613.423,2380.125c-0.968,0-1.946-0.278-2.806-0.858c-2.299-1.552-2.907-4.673-1.354-6.974
					l15.237-22.587c1.547-2.302,4.68-2.906,6.973-1.356c2.299,1.552,2.907,4.673,1.354,6.974l-15.237,22.587
					C1616.622,2379.351,1615.036,2380.125,1613.423,2380.125z"/>
			</g>
		</g>
		<g>
			
				<linearGradient id="SVGID_00000125567964075301024160000010673312662817514628_" gradientUnits="userSpaceOnUse" x1="1899.6167" y1="3029.5242" x2="1256.9821" y2="3728.531">
				<stop  offset="0" style="stop-color:#09005D"/>
				<stop  offset="1" style="stop-color:#1A0F91"/>
			</linearGradient>
			<path style="fill:url(#SVGID_00000125567964075301024160000010673312662817514628_);" d="M1696.479,3081.596
				c0,0-6.655,37.677-9.918,74.972c-1.275,14.576,9.962,27.232,24.581,27.841c49.667,2.068,155.907,6.091,194.03,4.39
				c5.731-0.256,9.478-6.123,7.357-11.453l0,0c-1.777-4.466-5.205-8.077-9.573-10.085l-175.489-80.654L1696.479,3081.596z"/>
			
				<linearGradient id="SVGID_00000172440259660699359490000006437863907748914837_" gradientUnits="userSpaceOnUse" x1="1691.0271" y1="3081.4404" x2="1748.1089" y2="3081.4404">
				<stop  offset="0" style="stop-color:#FEBBBA"/>
				<stop  offset="1" style="stop-color:#FF928E"/>
			</linearGradient>
			<path style="fill:url(#SVGID_00000172440259660699359490000006437863907748914837_);" d="M1691.027,3059.458l5.347,45.067
				c0,0,30.741,14.31,51.735-1.804l-12.73-50.222L1691.027,3059.458z"/>
			
				<linearGradient id="SVGID_00000067932115822776877520000004335280876948338072_" gradientUnits="userSpaceOnUse" x1="1555.6724" y1="2644.9729" x2="1744.4138" y2="2644.9729">
				<stop  offset="0" style="stop-color:#09005D"/>
				<stop  offset="1" style="stop-color:#1A0F91"/>
			</linearGradient>
			<path style="fill:url(#SVGID_00000067932115822776877520000004335280876948338072_);" d="M1695.046,2212.197
				c-2.31,11.769-12.397,587.291,49.122,845.202c1.004,4.209-1.13,8.546-5.135,10.182c-9.436,3.855-27.934,9.438-50.102,10.183
				c-6.865,0.231-13.021-4.231-14.957-10.822c-17.585-59.839-101.849-359.651-112.842-646.053c-12.283-320.026,0-10.897,0-10.897
				l7.204-197.82L1695.046,2212.197z"/>
			
				<linearGradient id="SVGID_00000071550792656893526740000000704267862475074986_" gradientUnits="userSpaceOnUse" x1="1755.4523" y1="2896.9856" x2="1112.8169" y2="3595.9934">
				<stop  offset="0" style="stop-color:#09005D"/>
				<stop  offset="1" style="stop-color:#1A0F91"/>
			</linearGradient>
			<path style="fill:url(#SVGID_00000071550792656893526740000000704267862475074986_);" d="M1494.609,3101.252
				c0,0-10.594,19.021-20.85,69.563c-1.852,9.128,4.525,17.864,13.794,18.775c16.4,1.612,41.647,3.686,61.872,3.547
				c9.323-0.064,16.599-8.182,15.475-17.437c-2.24-18.448-9.219-48.716-30.778-72.307L1494.609,3101.252z"/>
			
				<linearGradient id="SVGID_00000114069931705613971800000010092248759168418700_" gradientUnits="userSpaceOnUse" x1="1485.3042" y1="3078.5132" x2="1534.5892" y2="3078.5132">
				<stop  offset="0" style="stop-color:#FEBBBA"/>
				<stop  offset="1" style="stop-color:#FF928E"/>
			</linearGradient>
			<path style="fill:url(#SVGID_00000114069931705613971800000010092248759168418700_);" d="M1485.304,3043.286l12.494,68.152
				c0,0,12.353,9.189,36.791,2.528l-5.964-73.328L1485.304,3043.286z"/>
			
				<linearGradient id="SVGID_00000138563319519226818320000004778606999155638664_" gradientUnits="userSpaceOnUse" x1="1432.1825" y1="2638.7971" x2="1700.1346" y2="2638.7971">
				<stop  offset="0" style="stop-color:#09005D"/>
				<stop  offset="1" style="stop-color:#1A0F91"/>
			</linearGradient>
			<path style="fill:url(#SVGID_00000138563319519226818320000004778606999155638664_);" d="M1451.552,2229.858
				c-50.314,303.65,10.914,750.497,31.564,837.956c1.264,5.354,5.585,9.456,11.013,10.356c9.217,1.528,24.393,2.775,39.354-1.57
				c5.155-1.497,8.776-6.147,8.987-11.51c2.77-70.708-2.216-504.785,44.665-676.334c2.376-8.694,7.685-16.276,15.031-21.498
				l90.994-64.689l6.976-104.564L1451.552,2229.858z"/>
			<g>
				
					<linearGradient id="SVGID_00000023257600104194625760000004663362116815361936_" gradientUnits="userSpaceOnUse" x1="2116.9763" y1="1263.6012" x2="1601.2378" y2="1933.3907">
					<stop  offset="0" style="stop-color:#FF928E"/>
					<stop  offset="1" style="stop-color:#FE7062"/>
				</linearGradient>
				<path style="fill:url(#SVGID_00000023257600104194625760000004663362116815361936_);" d="M1772.156,1654.499
					c-150.783-2.491-317.154,39.591-317.154,39.591c-44.945,262.253-7.859,564.744-7.859,564.744
					c116.732,30.613,248.413-18.716,248.413-18.716c19.402-109.615,109.924-418.11,109.924-418.11
					c73.672-9.144,134.361-30.399,184.34-58.5c-38.122-44.19-56.094-100.419-63.901-133.658
					C1872.608,1646.418,1818.663,1655.267,1772.156,1654.499z"/>
				
					<linearGradient id="SVGID_00000117671280304927468930000000169641494627110585_" gradientUnits="userSpaceOnUse" x1="1925.9189" y1="1592.2421" x2="2217.5408" y2="1592.2421">
					<stop  offset="0" style="stop-color:#FEBBBA"/>
					<stop  offset="1" style="stop-color:#FF928E"/>
				</linearGradient>
				<path style="fill:url(#SVGID_00000117671280304927468930000000169641494627110585_);" d="M2217.541,1432.404
					c-14.812-17.891-33.559-9.427-33.559-9.427c-22.189,93.729-138.534,169.726-258.063,206.873
					c7.806,33.239,25.778,89.468,63.901,133.658C2188.188,1651.973,2217.541,1432.404,2217.541,1432.404z"/>
			</g>
			<g>
				
					<linearGradient id="SVGID_00000111150750153069509540000010872192395647751870_" gradientUnits="userSpaceOnUse" x1="8295.2012" y1="1543.3595" x2="8490.8867" y2="1988.5874" gradientTransform="matrix(-1 0 0 1 10447.7783 0)">
					<stop  offset="0" style="stop-color:#FEBBBA"/>
					<stop  offset="1" style="stop-color:#FF928E"/>
				</linearGradient>
				<path style="fill:url(#SVGID_00000111150750153069509540000010872192395647751870_);" d="M2213.946,1436.954
					c1.55,4.927-16.398,12.429-26.965-7.722c-0.369-9.658-6.243-51.033-0.472-58.901c30.736-41.904,90.327-94.432,90.327-94.432
					c10.071,9.938,1.774,19.7,1.774,19.7l-28.908,30.115c6.046,10.927,13.421,20.15,16.878,33.367
					c2.618,10.009,1.017,20.705-4.039,29.814c-5.074,9.142-11.998,21.026-18.542,30.326
					C2231.611,1436.821,2213.946,1436.954,2213.946,1436.954z"/>
				
					<linearGradient id="SVGID_00000041258699891599532150000017964621771808343719_" gradientUnits="userSpaceOnUse" x1="2216.1411" y1="1395.0825" x2="2297.7925" y2="1269.5435">
					<stop  offset="0" style="stop-color:#FEBBBA"/>
					<stop  offset="1" style="stop-color:#FF928E"/>
				</linearGradient>
				<path style="fill:url(#SVGID_00000041258699891599532150000017964621771808343719_);" d="M2237.057,1345.252l-26.343,22.332
					l-8.271,22.235l23.488,26.056c0,0,7.897-44.117,13.767-53.666C2245.567,1352.662,2242.523,1348.045,2237.057,1345.252z"/>
			</g>
			
				<linearGradient id="SVGID_00000050640892152065113000000016044078350009453996_" gradientUnits="userSpaceOnUse" x1="1953.85" y1="1137.995" x2="1438.1117" y2="1807.7843">
				<stop  offset="0" style="stop-color:#FF928E"/>
				<stop  offset="1" style="stop-color:#FE7062"/>
			</linearGradient>
			<path style="fill:url(#SVGID_00000050640892152065113000000016044078350009453996_);" d="M1512.836,1840.092l-57.834-146.002
				c0,0-140.839,95.694-164,217.024c26.611,1.96,75.035,8.881,122.434,32.815
				C1423.851,1886.639,1512.836,1840.092,1512.836,1840.092z"/>
			
				<linearGradient id="SVGID_00000103973368178714793780000002805505447890250117_" gradientUnits="userSpaceOnUse" x1="1287.7905" y1="2005.3164" x2="1656.8403" y2="2005.3164">
				<stop  offset="0" style="stop-color:#FEBBBA"/>
				<stop  offset="1" style="stop-color:#FF928E"/>
			</linearGradient>
			<path style="fill:url(#SVGID_00000103973368178714793780000002805505447890250117_);" d="M1635.914,1977.474
				c0,0-158.127,89.366-211.481,13.058c-11.078-15.844-13.726-31.592-10.997-46.604c-47.398-23.933-95.823-30.855-122.434-32.815
				c-6.984,36.576-3.292,75.479,18.202,114.797c93.459,170.963,347.637-9.448,347.637-9.448L1635.914,1977.474z"/>
			<g>
				
					<linearGradient id="SVGID_00000124860495354136097280000016982382806886347417_" gradientUnits="userSpaceOnUse" x1="1768.4913" y1="1742.9337" x2="1971.4182" y2="2588.4648">
					<stop  offset="0" style="stop-color:#09005D"/>
					<stop  offset="1" style="stop-color:#1A0F91"/>
				</linearGradient>
				<path style="fill:url(#SVGID_00000124860495354136097280000016982382806886347417_);" d="M1616.915,2090.531l86.3-301.378
					c0.98-3.421,3.898-5.916,7.433-6.329c15.636-1.824,60.943-6.946,113.255-11.37c63.011-5.33,136.185-9.649,179.912-5.975
					c6.217,0.522,9.973,7.097,7.209,12.69c-24.866,50.307-127.148,254.941-178.367,321.977c-1.697,2.221-4.321,3.519-7.116,3.493
					l-200.23-1.863C1619.484,2101.722,1615.311,2096.133,1616.915,2090.531z"/>
				
					<linearGradient id="SVGID_00000067938082601486849760000018001279519275845515_" gradientUnits="userSpaceOnUse" x1="1923.7367" y1="1653.2465" x2="1784.1221" y2="1880.1202">
					<stop  offset="0" style="stop-color:#4F52FF"/>
					<stop  offset="1" style="stop-color:#4042E2"/>
				</linearGradient>
				<path style="fill:url(#SVGID_00000067938082601486849760000018001279519275845515_);" d="M1832.854,1745.326l62.569-10.425
					c3.332-0.555,6.061,2.629,5.003,5.837l-6.194,18.768c-0.539,1.634-1.964,2.816-3.67,3.044l-60.21,8.043
					c-3.115,0.416-5.683-2.414-4.967-5.474l3.834-16.386C1829.632,1746.967,1831.066,1745.624,1832.854,1745.326z"/>
				
					<linearGradient id="SVGID_00000048482558728251336940000004678172755537752234_" gradientUnits="userSpaceOnUse" x1="1964.4363" y1="1607.4108" x2="1824.8214" y2="1834.2849">
					<stop  offset="0" style="stop-color:#4F52FF"/>
					<stop  offset="1" style="stop-color:#4042E2"/>
				</linearGradient>
				<path style="fill:url(#SVGID_00000048482558728251336940000004678172755537752234_);" d="M1786.004,1798.295l5.154-26.849
					c0.517-2.693,2.74-4.727,5.468-5.004l126.375-12.824c4.254-0.432,7.659,3.466,6.661,7.624l-8.035,33.456
					c-0.643,2.677-2.973,4.61-5.722,4.749l-123.494,6.217C1788.391,1805.866,1785.245,1802.248,1786.004,1798.295z"/>
				
					<linearGradient id="SVGID_00000128457904445506511090000007911980871424681886_" gradientUnits="userSpaceOnUse" x1="1629.4399" y1="1966.6217" x2="1744.4138" y2="1966.6217">
					<stop  offset="0" style="stop-color:#FEBBBA"/>
					<stop  offset="1" style="stop-color:#FF928E"/>
				</linearGradient>
				<path style="fill:url(#SVGID_00000128457904445506511090000007911980871424681886_);" d="M1637.765,2017.719
					c0,0-12.021-49.432-7.172-66.97c4.849-17.538,14.245-40.086,45.562-35.076c31.318,5.011,68.259,18.203,68.259,18.203
					s-1.866,22.844-25.667,15.474l14.759,11.42c0,0-2.109,18.291-22.214,8.519l13.728,15.146c0,0-8.634,15.022-23.425,5.387
					C1686.802,1980.187,1679.712,2023.671,1637.765,2017.719z"/>
			</g>
			
				<linearGradient id="SVGID_00000103241403035499525460000009644743908429724288_" gradientUnits="userSpaceOnUse" x1="1523.9243" y1="1847.7883" x2="1667.9291" y2="1579.8721">
				<stop  offset="0" style="stop-color:#FEBBBA"/>
				<stop  offset="1" style="stop-color:#FF928E"/>
			</linearGradient>
			<path style="fill:url(#SVGID_00000103241403035499525460000009644743908429724288_);" d="M1619.425,1532.087l-47.977,138.745
				c-0.795,2.298,0.15,4.844,2.278,6.02c13.078,7.231,60.195,28.131,116.976-7.869c5.915-3.75,9.941-9.867,10.84-16.812
				l15.536-120.084H1619.425z"/>
			<g>
				
					<linearGradient id="SVGID_00000004538277321841264870000013531355758315199638_" gradientUnits="userSpaceOnUse" x1="678.35" y1="854.8268" x2="482.9716" y2="1113.2965" gradientTransform="matrix(0.6854 -0.7281 0.7281 0.6854 583.2305 1318.7853)">
					<stop  offset="0" style="stop-color:#FEBBBA"/>
					<stop  offset="1" style="stop-color:#FF928E"/>
				</linearGradient>
				<path style="fill:url(#SVGID_00000004538277321841264870000013531355758315199638_);" d="M1696.028,1382.086
					c1.875,1.766,79.153,153.521,79.153,153.521l-87.587,42.282l-94.613-132.951
					C1592.98,1444.939,1664.629,1352.53,1696.028,1382.086z"/>
				
					<linearGradient id="SVGID_00000118376236250487731320000003468870667886373810_" gradientUnits="userSpaceOnUse" x1="529.1364" y1="916.8984" x2="762.5185" y2="916.8984" gradientTransform="matrix(0.6854 -0.7281 0.7281 0.6854 583.2305 1318.7853)">
					<stop  offset="0" style="stop-color:#09005D"/>
					<stop  offset="1" style="stop-color:#1A0F91"/>
				</linearGradient>
				<path style="fill:url(#SVGID_00000118376236250487731320000003468870667886373810_);" d="M1631.734,1448.62
					c-1.563,4.042-1.179,8.554,1.051,12.27l43.684,72.82c0.663,1.105,1.452,2.103,2.396,2.982c5.2,4.84,22.993,18.919,36.748-0.249
					c11.724-16.337,22.723-31.189,34.51-37.314c6.882-3.578,15.353-0.721,18.847,6.204c7.197,14.265,21.138,43.344,29.897,70.918
					c2.195,6.911-1.372,14.331-8.093,17.054c-17.735,7.186-52.788,20.181-83.893,24.473c-5.109,0.706-10.168-1.45-13.209-5.616
					c-13.382-18.333-51.1-69.566-63.974-82.391c-11.96-11.914-34.033-7.421-43.978-4.563c-3.775,1.085-7.796,0.562-11.161-1.465
					c-10.092-6.078-27.701-21.214-11.592-46.841c4.006-6.371,1.963-14.858-4.325-18.994c-11.266-7.411-23.492-21.323-11.844-43.851
					c11.791-22.806,32.848-24.853,47.189-23.101c6.345,0.776,12.788-2.552,15.222-8.462c1.083-2.629,3.224-4.87,7.209-5.679
					c7.516-1.525,12.45-8.399,10.975-15.925c-2.529-12.905-0.625-29.671,19.981-41c37.792-20.778,70.895,13.078,79.312,41.658
					c8.417,28.581-33.836,48.778-60.415,52.149C1646.746,1416.174,1636.041,1437.483,1631.734,1448.62z"/>
				
					<linearGradient id="SVGID_00000112609117337290309880000016636490759264921996_" gradientUnits="userSpaceOnUse" x1="1545.65" y1="1592.2651" x2="1709.7484" y2="1468.3542">
					<stop  offset="0" style="stop-color:#FEBBBA"/>
					<stop  offset="1" style="stop-color:#FF928E"/>
				</linearGradient>
				<path style="fill:url(#SVGID_00000112609117337290309880000016636490759264921996_);" d="M1646.105,1556.515
					c0,0-16.805-49.17-38.315-47.365c-21.511,1.805-38.441,23.234-11.782,47.323
					C1629.167,1586.437,1646.105,1556.515,1646.105,1556.515z"/>
			</g>
		</g>
		<g>
			
				<linearGradient id="SVGID_00000102522715878344104210000000003693950168187522_" gradientUnits="userSpaceOnUse" x1="-6760.4756" y1="1318.3431" x2="-6644.248" y2="1609.8965" gradientTransform="matrix(-1 0 0 1 -5477.0288 0)">
				<stop  offset="0" style="stop-color:#09005D"/>
				<stop  offset="1" style="stop-color:#1A0F91"/>
			</linearGradient>
			<path style="fill:url(#SVGID_00000102522715878344104210000000003693950168187522_);" d="M1214.53,1475.175
				c0,0-39.183,19.059-46.387,40.953c-5.781,17.567-49.106,19.832-53.386,54.381c-2.21,17.838-15.41,32.124-33.176,34.847
				c-44.25,6.782-112.444,29.761-123.356,106.589c-8.328,58.642,21.567,80.878,52.94,88.575
				c23.043,5.653,38.357,28.066,33.697,51.33c-4.471,22.315,2.196,48.11,40.853,68.508c86.628,45.71,173.14-108.292,173.14-108.292
				l17.73-268.899L1214.53,1475.175z"/>
			
				<linearGradient id="SVGID_00000047782537385858002050000017848499029346094225_" gradientUnits="userSpaceOnUse" x1="-3416.5356" y1="-3129.4016" x2="-3214.1306" y2="-3574.6919" gradientTransform="matrix(-1 0 0 1 -5477.0288 0)">
				<stop  offset="0" style="stop-color:#09005D"/>
				<stop  offset="1" style="stop-color:#1A0F91"/>
			</linearGradient>
			<path style="fill:url(#SVGID_00000047782537385858002050000017848499029346094225_);" d="M858.453,3161.261l-5.606,46.084
				c-1.063,8.742-7.947,15.655-16.696,16.655c-14.774,1.687-38.481,3.417-61.677,0.966c-10.181-1.076-16.791-11.386-13.689-21.143
				c5.654-17.79,15.998-44.496,30.913-60.212h51.122C852.272,3143.61,859.594,3151.878,858.453,3161.261z"/>
			
				<linearGradient id="SVGID_00000070841116876903682930000003210942145049313436_" gradientUnits="userSpaceOnUse" x1="-6752.0488" y1="3573.5479" x2="-6610.2192" y2="1915.9169" gradientTransform="matrix(-1 0 0 1 -5477.0288 0)">
				<stop  offset="0" style="stop-color:#FEBBBA"/>
				<stop  offset="1" style="stop-color:#FF928E"/>
			</linearGradient>
			<path style="fill:url(#SVGID_00000070841116876903682930000003210942145049313436_);" d="M1258.854,2621.415l8.628,50.757
				c0,0-28.895,292.685-34.035,409.759c-0.806,18.355,3.942,36.494,13.576,52.138l50.244,81.591l-127.694-75.351l-2.542-15.583
				l20.904-28.741l-27.38-327.88c-1.609-19.261,2.365-38.578,11.448-55.64l26.412-49.619L1258.854,2621.415z"/>
			
				<linearGradient id="SVGID_00000070099253755878998850000004957604816422902459_" gradientUnits="userSpaceOnUse" x1="-3762.1763" y1="-3286.5068" x2="-3559.7844" y2="-3731.7681" gradientTransform="matrix(-1 0 0 1 -5477.0288 0)">
				<stop  offset="0" style="stop-color:#09005D"/>
				<stop  offset="1" style="stop-color:#1A0F91"/>
			</linearGradient>
			<path style="fill:url(#SVGID_00000070099253755878998850000004957604816422902459_);" d="M1305.678,3227.479h-40.75
				c-7.627,0-14.821-3.501-19.472-9.546c-12.703-16.506-39.024-48.711-51.609-49.552c-16.942-1.131-14.775,59.098-14.775,59.098
				h-9.497l-12.029-74.843c-3.027-18.831,6.339-37.486,23.248-46.309l0,0c0,0,3.873,28.641,24.873,41.31
				c21,12.669,85.454,58.038,85.454,58.038s7.895-1.126,16.562,0.441C1320.54,3208.439,1318.743,3227.479,1305.678,3227.479z"/>
			
				<linearGradient id="SVGID_00000089551170747707643270000011198075043121283973_" gradientUnits="userSpaceOnUse" x1="-6466.7505" y1="3598.2122" x2="-6324.8843" y2="1940.1461" gradientTransform="matrix(-1 0 0 1 -5477.0288 0)">
				<stop  offset="0" style="stop-color:#FEBBBA"/>
				<stop  offset="1" style="stop-color:#FF928E"/>
			</linearGradient>
			<path style="fill:url(#SVGID_00000089551170747707643270000011198075043121283973_);" d="M1083.956,2645.522
				c0,0-169.277,321.101-196.187,394.415c-26.908,73.312-36.335,134.472-36.695,140.263c-0.564,9.05-11.819,17.729-42.846,17.729
				c-16.013,0-23.855-6.419-27.694-12.631c-3.276-5.3-3.445-11.933-0.685-17.519c9.792-19.816,40.866-83.146,52.375-111.868
				c13.74-34.295,43.297-189.71,59.506-243.746c16.21-54.036,34.533-112.651,105.122-166.643
				C996.852,2645.522,1045.31,2598.061,1083.956,2645.522z"/>
			
				<linearGradient id="SVGID_00000150823818568824939760000016289002021438574236_" gradientUnits="userSpaceOnUse" x1="1078.4779" y1="2089.2976" x2="1373.1843" y2="1881.6637">
				<stop  offset="0" style="stop-color:#09005D"/>
				<stop  offset="1" style="stop-color:#1A0F91"/>
			</linearGradient>
			<path style="fill:url(#SVGID_00000150823818568824939760000016289002021438574236_);" d="M1190.891,2119.38
				c43.666-185.029-66.952-289.68-66.952-289.68c69.798-66.998,196.97-97.485,196.97-97.485s121.349,88.717,106.954,158.158
				c-8.438,40.699-85.297,243.781-85.297,243.781S1271.493,2167.79,1190.891,2119.38z"/>
			
				<linearGradient id="SVGID_00000098906720618155760420000007984265003012935358_" gradientUnits="userSpaceOnUse" x1="1875.2186" y1="1727.6707" x2="1312.5957" y2="2300.3398">
				<stop  offset="0" style="stop-color:#FF928E"/>
				<stop  offset="1" style="stop-color:#FE7062"/>
			</linearGradient>
			<path style="fill:url(#SVGID_00000098906720618155760420000007984265003012935358_);" d="M1094.077,2210.983
				c17.771-53.535,96.814-91.603,96.814-91.603c80.602,48.41,151.674,14.775,151.674,14.775s15.939,60.922,4.938,117.539
				c-11.001,56.617-80.019,420.478-80.019,420.478c-108.75,22.035-276.006-22.169-276.006-22.169
				C1060.747,2527.019,1076.307,2264.518,1094.077,2210.983z"/>
			
				<linearGradient id="SVGID_00000183958057260624500070000011176586662470620040_" gradientUnits="userSpaceOnUse" x1="1250.4073" y1="1832.864" x2="1263.803" y2="1595.0892">
				<stop  offset="0" style="stop-color:#FEBBBA"/>
				<stop  offset="1" style="stop-color:#FF928E"/>
			</linearGradient>
			<path style="fill:url(#SVGID_00000183958057260624500070000011176586662470620040_);" d="M1241.576,1609.941l-35.501,159.464
				c-3.399,14.047,9.406,11.747,23.606,9.07c23.256-4.384,53.229-13.414,63.25-31.51c1.02-1.842,1.529-3.923,1.816-6.009
				L1310,1630.379c1.211-8.773-3.532-17.287-11.628-20.877l-29.432-13.051C1257.608,1591.427,1244.492,1597.893,1241.576,1609.941z"
				/>
			
				<linearGradient id="SVGID_00000021805931307592663290000008483567033320412805_" gradientUnits="userSpaceOnUse" x1="-6657.7979" y1="2034.5996" x2="-6480.8159" y2="2034.5996" gradientTransform="matrix(-1 0 0 1 -5477.0288 0)">
				<stop  offset="0" style="stop-color:#FEBBBA"/>
				<stop  offset="1" style="stop-color:#FF928E"/>
			</linearGradient>
			<path style="fill:url(#SVGID_00000021805931307592663290000008483567033320412805_);" d="M1123.939,1829.7
				c0,0-247.782,177.274-31.69,363.553c0,0,8.24,9.323,24.449,14.168c8.183,2.446,32.392,20.761,44.665,30.31
				c3.946,3.07,9.647,2.025,12.299-2.212l0,0c2.079-3.321,2.323-7.471,0.648-11.012l-30.675-64.865
				c-8.518-7.95-21.557-8.515-30.731-1.331l0,0c-5.852,4.583-14.425,2.664-17.7-4.008c-16.705-34.023-48.247-134.086,80.855-247.153
				c4.854-4.25,6.082-11.28,3.103-17.002C1170.09,1872.721,1149.345,1838.118,1123.939,1829.7z"/>
			<g>
				
					<linearGradient id="SVGID_00000101093380549983417670000015906373261310104974_" gradientUnits="userSpaceOnUse" x1="-6811.2671" y1="490.0659" x2="-6578.8032" y2="76.3583" gradientTransform="matrix(-0.9809 -0.1943 -0.1943 0.9809 -5247.939 -99.2406)">
					<stop  offset="0" style="stop-color:#FEBBBA"/>
					<stop  offset="1" style="stop-color:#FF928E"/>
				</linearGradient>
				<path style="fill:url(#SVGID_00000101093380549983417670000015906373261310104974_);" d="M1309.574,1464.572
					c0,0,37.795,25.584,54.036,90.737s-10.152,88.524-37.206,87.092c-27.054-1.432-66.28-9.798-100.267-56.539
					C1192.151,1539.121,1260.047,1433.31,1309.574,1464.572z"/>
				
					<linearGradient id="SVGID_00000103251724715851007460000012754470175097030062_" gradientUnits="userSpaceOnUse" x1="-6761.2734" y1="129.792" x2="-6645.0415" y2="421.3573" gradientTransform="matrix(-0.9809 -0.1943 -0.1943 0.9809 -5247.939 -99.2406)">
					<stop  offset="0" style="stop-color:#09005D"/>
					<stop  offset="1" style="stop-color:#1A0F91"/>
				</linearGradient>
				<path style="fill:url(#SVGID_00000103251724715851007460000012754470175097030062_);" d="M1260.411,1559.583
					c0,0-13.848-93.359,63.665-79.079l15.672,16.316c0,0,37.94-42.727-4.046-75.024c-41.986-32.297-100.249-24.027-132.483,34.772
					c-32.234,58.799-43.933,100.116-16.915,136.653c27.017,36.537,47.34,5.201,47.34,5.201s-12.391-31.623-2.11-45.193
					c10.281-13.57,23.546,7.891,23.546,7.891L1260.411,1559.583z"/>
				
					<linearGradient id="SVGID_00000170266525039146937620000006689744810384300443_" gradientUnits="userSpaceOnUse" x1="-6761.7856" y1="517.8743" x2="-6529.3208" y2="104.1649" gradientTransform="matrix(-0.9809 -0.1943 -0.1943 0.9809 -5247.939 -99.2406)">
					<stop  offset="0" style="stop-color:#FEBBBA"/>
					<stop  offset="1" style="stop-color:#FF928E"/>
				</linearGradient>
				<path style="fill:url(#SVGID_00000170266525039146937620000006689744810384300443_);" d="M1249.818,1567.578
					c0,0-6.837-48.032-31.368-34.301c-24.532,13.731,8.841,44.869,22.221,55.464L1249.818,1567.578z"/>
			</g>
		</g>
		<g>
			<path style="fill:#BDD0FB;" d="M1814.381,1000.472c60.728-160.159,391.007-185.818,434.842,49.577
				c39.933,214.44-394.653,283.948-394.653,283.948C2082.634,1214.215,1753.654,1160.631,1814.381,1000.472z"/>
			<g>
				<path style="fill:#FFFFFF;" d="M2184.628,1036.547l-196.78-2.137c-1.44-0.016-2.595-1.196-2.579-2.636
					c0.016-1.44,1.196-2.594,2.636-2.579l196.78,2.137c1.44,0.016,2.595,1.196,2.579,2.636
					C2187.248,1035.408,2186.068,1036.563,2184.628,1036.547z"/>
				<path style="fill:#FFFFFF;" d="M1929.417,1033.775l-58.388-0.634c-1.44-0.016-2.595-1.196-2.579-2.636
					c0.016-1.44,1.196-2.595,2.636-2.579l58.388,0.634c1.44,0.016,2.595,1.195,2.579,2.635
					C1932.037,1032.636,1930.857,1033.791,1929.417,1033.775z"/>
				<path style="fill:#FFFFFF;" d="M2190.824,1076.456l-73.889-0.802c-1.44-0.016-2.594-1.196-2.579-2.636
					c0.015-1.44,1.196-2.595,2.635-2.579l73.889,0.803c1.44,0.016,2.595,1.196,2.579,2.636
					C2193.444,1075.317,2192.264,1076.472,2190.824,1076.456z"/>
				<path style="fill:#FFFFFF;" d="M2008.516,1074.476l-131.29-1.426c-1.44-0.016-2.595-1.196-2.579-2.636
					c0.016-1.44,1.196-2.594,2.636-2.579l131.29,1.426c1.44,0.016,2.595,1.196,2.579,2.636
					C2011.136,1073.337,2009.956,1074.492,2008.516,1074.476z"/>
				<path style="fill:#FFFFFF;" d="M2197.02,1116.367l-196.416-2.133c-1.44-0.016-2.595-1.195-2.579-2.635
					c0.016-1.44,1.196-2.595,2.636-2.579l196.415,2.133c1.44,0.015,2.595,1.196,2.58,2.636
					C2199.641,1115.228,2198.461,1116.383,2197.02,1116.367z"/>
				<path style="fill:#FFFFFF;" d="M1951.421,1113.7l-67.999-0.739c-1.44-0.015-2.595-1.196-2.579-2.636
					c0.016-1.439,1.196-2.594,2.636-2.579l67.999,0.738c1.44,0.016,2.595,1.196,2.579,2.636
					C1954.041,1112.561,1952.861,1113.716,1951.421,1113.7z"/>
			</g>
		</g>
		<g>
			<g>
				
					<linearGradient id="SVGID_00000061449765574694717020000014555886655850493831_" gradientUnits="userSpaceOnUse" x1="2445.4646" y1="2654.8542" x2="2841.0129" y2="2195.7361">
					<stop  offset="0" style="stop-color:#E1473D"/>
					<stop  offset="1" style="stop-color:#E9605A"/>
				</linearGradient>
				
					<circle style="fill:url(#SVGID_00000061449765574694717020000014555886655850493831_);" cx="2849.003" cy="2186.462" r="294.896"/>
				
					<linearGradient id="SVGID_00000140006029988569899220000017853647944166605483_" gradientUnits="userSpaceOnUse" x1="2962.4893" y1="1824.3867" x2="2751.5061" y2="2497.5239">
					<stop  offset="0" style="stop-color:#FF928E"/>
					<stop  offset="1" style="stop-color:#FE7062"/>
				</linearGradient>
				
					<circle style="fill:url(#SVGID_00000140006029988569899220000017853647944166605483_);" cx="2849.003" cy="2186.462" r="285.09"/>
				<path style="opacity:0.78;fill:#FFFFFF;" d="M2613.916,2074.575c-0.99,0-1.996-0.223-2.941-0.703
					c-3.226-1.625-4.519-5.56-2.89-8.785c46.185-91.498,138.498-148.337,240.917-148.337c16.341,0,32.711,1.472,48.65,4.378
					c3.554,0.648,5.911,4.056,5.263,7.607c-0.645,3.558-4.062,5.886-7.607,5.263c-15.169-2.766-30.748-4.168-46.306-4.168
					c-97.454,0-185.292,54.086-229.242,141.151C2618.61,2073.263,2616.308,2074.575,2613.916,2074.575z"/>
				
					<ellipse transform="matrix(0.7071 -0.7071 0.7071 0.7071 -714.1816 2661.1609)" style="opacity:0.78;fill:#FFFFFF;" cx="2855.215" cy="2192.674" rx="241.294" ry="241.294"/>
				<g>
					
						<linearGradient id="SVGID_00000021833807085695966500000006181093356271808901_" gradientUnits="userSpaceOnUse" x1="3107.5317" y1="1432.6115" x2="2730.7935" y2="2587.9402">
						<stop  offset="0" style="stop-color:#FF928E"/>
						<stop  offset="1" style="stop-color:#FE7062"/>
					</linearGradient>
					<path style="fill:url(#SVGID_00000021833807085695966500000006181093356271808901_);" d="M2831.536,2372.055v-26.251
						c-27.367-1.096-54.435-7.555-73.66-15.97c-6.865-3.005-10.365-10.71-8.392-17.94l6.669-24.452
						c2.446-8.97,12.202-13.611,20.777-10.016c19.071,7.995,42.618,14.32,68.01,14.32c26.358,0,46.015-8.937,46.015-27.254
						c0-16.529-15.189-26.357-51.823-36.185c-52.269-14.296-89.799-37.082-89.799-83.097c0-41.551,30.382-73.27,83.098-81.757
						v-26.255c0-8.447,6.848-15.295,15.296-15.295h15.424c8.447,0,15.296,6.849,15.296,15.295v23.572
						c25.323,1.014,43.756,5.343,58.385,10.484c7.495,2.633,11.59,10.707,9.511,18.375l-6.133,22.615
						c-2.365,8.72-11.686,13.497-20.137,10.301c-13.468-5.093-32.51-10.396-57.262-10.396c-31.273,0-40.208,12.954-40.208,24.571
						c0,14.297,18.763,24.124,59.418,36.635c58.08,17.423,82.203,41.547,82.203,84.883c0,39.761-29.485,75.503-86.67,84.439v29.379
						c0,8.448-6.848,15.296-15.296,15.296h-15.426C2838.384,2387.351,2831.536,2380.502,2831.536,2372.055z"/>
				</g>
			</g>
			
				<linearGradient id="SVGID_00000026844555076071741210000005814489773598104490_" gradientUnits="userSpaceOnUse" x1="2933.9917" y1="2324.5359" x2="2665.2744" y2="3236.1311">
				<stop  offset="0" style="stop-color:#FF928E"/>
				<stop  offset="1" style="stop-color:#FE7062"/>
			</linearGradient>
			<path style="fill:url(#SVGID_00000026844555076071741210000005814489773598104490_);" d="M3134.285,2667.884H2563.72
				c-2.007,0-3.634-1.627-3.634-3.634v-102.796c0-2.007,1.627-3.634,3.634-3.634h570.565c2.007,0,3.634,1.627,3.634,3.634v102.796
				C3137.919,2666.257,3136.292,2667.884,3134.285,2667.884z"/>
			
				<linearGradient id="SVGID_00000166650639533591794320000006108139801019038347_" gradientUnits="userSpaceOnUse" x1="2970.4116" y1="2333.2241" x2="2701.6946" y2="3244.8188">
				<stop  offset="0" style="stop-color:#FF928E"/>
				<stop  offset="1" style="stop-color:#FE7062"/>
			</linearGradient>
			<path style="fill:url(#SVGID_00000166650639533591794320000006108139801019038347_);" d="M3134.738,2798.584h-570.564
				c-2.007,0-3.634-1.627-3.634-3.634v-102.796c0-2.007,1.627-3.634,3.634-3.634h570.564c2.007,0,3.634,1.627,3.634,3.634v102.796
				C3138.372,2796.957,3136.745,2798.584,3134.738,2798.584z"/>
			
				<linearGradient id="SVGID_00000068650887725177592350000004252957438442578093_" gradientUnits="userSpaceOnUse" x1="3006.8323" y1="2341.9109" x2="2738.1152" y2="3253.5051">
				<stop  offset="0" style="stop-color:#FF928E"/>
				<stop  offset="1" style="stop-color:#FE7062"/>
			</linearGradient>
			<path style="fill:url(#SVGID_00000068650887725177592350000004252957438442578093_);" d="M3135.192,2929.284h-570.564
				c-2.007,0-3.634-1.627-3.634-3.634v-102.796c0-2.007,1.627-3.634,3.634-3.634h570.564c2.007,0,3.634,1.627,3.634,3.634v102.796
				C3138.826,2927.657,3137.199,2929.284,3135.192,2929.284z"/>
			
				<linearGradient id="SVGID_00000035529432006507297490000009946814073845141166_" gradientUnits="userSpaceOnUse" x1="3043.252" y1="2350.5991" x2="2774.5347" y2="3262.1943">
				<stop  offset="0" style="stop-color:#FF928E"/>
				<stop  offset="1" style="stop-color:#FE7062"/>
			</linearGradient>
			<path style="fill:url(#SVGID_00000035529432006507297490000009946814073845141166_);" d="M3135.646,3059.984h-570.565
				c-2.007,0-3.634-1.627-3.634-3.634v-102.796c0-2.007,1.627-3.634,3.634-3.634h570.565c2.007,0,3.634,1.627,3.634,3.634v102.796
				C3139.28,3058.357,3137.653,3059.984,3135.646,3059.984z"/>
			
				<linearGradient id="SVGID_00000171707082597674115390000009295882377500923291_" gradientUnits="userSpaceOnUse" x1="3079.6714" y1="2359.2886" x2="2810.9543" y2="3270.8833">
				<stop  offset="0" style="stop-color:#FF928E"/>
				<stop  offset="1" style="stop-color:#FE7062"/>
			</linearGradient>
			<path style="fill:url(#SVGID_00000171707082597674115390000009295882377500923291_);" d="M3136.099,3190.684h-570.564
				c-2.007,0-3.634-1.627-3.634-3.634v-102.796c0-2.007,1.627-3.634,3.634-3.634H3136.1c2.007,0,3.634,1.627,3.634,3.634v102.796
				C3139.733,3189.057,3138.106,3190.684,3136.099,3190.684z"/>
		</g>
		<g>
			<g>
				
					<linearGradient id="SVGID_00000169530063120647959560000002546794165441904788_" gradientUnits="userSpaceOnUse" x1="1798.9045" y1="2939.9443" x2="2194.4529" y2="2480.8262">
					<stop  offset="0" style="stop-color:#E1473D"/>
					<stop  offset="1" style="stop-color:#E9605A"/>
				</linearGradient>
				
					<circle style="fill:url(#SVGID_00000169530063120647959560000002546794165441904788_);" cx="2202.443" cy="2471.552" r="294.896"/>
				
					<linearGradient id="SVGID_00000134932373207124624900000007791271908508415659_" gradientUnits="userSpaceOnUse" x1="2403.4949" y1="1973.9987" x2="2071.9487" y2="2794.4932">
					<stop  offset="0" style="stop-color:#FF928E"/>
					<stop  offset="1" style="stop-color:#FE7062"/>
				</linearGradient>
				
					<circle style="fill:url(#SVGID_00000134932373207124624900000007791271908508415659_);" cx="2202.443" cy="2471.552" r="285.09"/>
				<path style="opacity:0.78;fill:#FFFFFF;" d="M1967.355,2359.664c-0.99,0-1.996-0.224-2.941-0.703
					c-3.225-1.625-4.519-5.56-2.89-8.785c46.182-91.495,138.497-148.333,240.917-148.333c16.354,0,32.724,1.472,48.65,4.375
					c3.554,0.648,5.911,4.056,5.263,7.607c-0.648,3.558-4.056,5.911-7.607,5.263c-15.156-2.762-30.738-4.164-46.306-4.164
					c-97.454,0-185.295,54.086-229.242,141.148C1972.05,2358.352,1969.747,2359.664,1967.355,2359.664z"/>
				
					<ellipse transform="matrix(0.7071 -0.7071 0.7071 0.7071 -1105.1438 2287.4746)" style="opacity:0.78;fill:#FFFFFF;" cx="2208.654" cy="2477.764" rx="241.294" ry="241.294"/>
				<g>
					
						<linearGradient id="SVGID_00000093893433423271825300000003516167834381903286_" gradientUnits="userSpaceOnUse" x1="2509.9822" y1="1673.0438" x2="2088.0347" y2="2818.3276">
						<stop  offset="0" style="stop-color:#FF928E"/>
						<stop  offset="1" style="stop-color:#FE7062"/>
					</linearGradient>
					<path style="fill:url(#SVGID_00000093893433423271825300000003516167834381903286_);" d="M2184.975,2657.145v-26.251
						c-27.366-1.096-54.434-7.555-73.66-15.97c-6.865-3.005-10.365-10.71-8.392-17.939l6.668-24.453
						c2.447-8.97,12.202-13.61,20.778-10.016c19.07,7.994,42.618,14.32,68.009,14.32c26.358,0,46.015-8.936,46.015-27.254
						c0-16.529-15.189-26.357-51.823-36.185c-52.27-14.296-89.799-37.082-89.799-83.097c0-41.551,30.382-73.27,83.098-81.757
						v-26.255c0-8.447,6.848-15.295,15.296-15.295h15.424c8.447,0,15.296,6.848,15.296,15.295v23.572
						c25.323,1.013,43.756,5.344,58.385,10.484c7.495,2.633,11.59,10.707,9.511,18.375l-6.133,22.615
						c-2.365,8.72-11.686,13.497-20.137,10.301c-13.468-5.093-32.51-10.396-57.262-10.396c-31.274,0-40.208,12.955-40.208,24.571
						c0,14.297,18.763,24.124,59.418,36.635c58.08,17.423,82.203,41.547,82.203,84.883c0,39.761-29.485,75.502-86.67,84.439v29.379
						c0,8.448-6.848,15.296-15.297,15.296h-15.425C2191.824,2672.441,2184.975,2665.592,2184.975,2657.145z"/>
				</g>
			</g>
			
				<linearGradient id="SVGID_00000066505753801364475280000004018543039688671664_" gradientUnits="userSpaceOnUse" x1="2299.384" y1="2479.8384" x2="2143.2256" y2="3291.1848">
				<stop  offset="0" style="stop-color:#FF928E"/>
				<stop  offset="1" style="stop-color:#FE7062"/>
			</linearGradient>
			<path style="fill:url(#SVGID_00000066505753801364475280000004018543039688671664_);" d="M2508.754,2929.284H1938.19
				c-2.007,0-3.634-1.627-3.634-3.634v-102.796c0-2.007,1.627-3.634,3.634-3.634h570.564c2.007,0,3.634,1.627,3.634,3.634v102.796
				C2512.388,2927.657,2510.761,2929.284,2508.754,2929.284z"/>
			
				<linearGradient id="SVGID_00000124841098491170091600000004336253137343498174_" gradientUnits="userSpaceOnUse" x1="2324.4106" y1="2482.8679" x2="2168.252" y2="3294.2146">
				<stop  offset="0" style="stop-color:#FF928E"/>
				<stop  offset="1" style="stop-color:#FE7062"/>
			</linearGradient>
			<path style="fill:url(#SVGID_00000124841098491170091600000004336253137343498174_);" d="M2509.208,3059.984h-570.564
				c-2.007,0-3.634-1.627-3.634-3.634v-102.796c0-2.007,1.627-3.634,3.634-3.634h570.564c2.007,0,3.634,1.627,3.634,3.634v102.796
				C2512.842,3058.357,2511.215,3059.984,2509.208,3059.984z"/>
			
				<linearGradient id="SVGID_00000114038528401012212840000011796609748531760308_" gradientUnits="userSpaceOnUse" x1="2349.4368" y1="2485.8972" x2="2193.2781" y2="3297.2444">
				<stop  offset="0" style="stop-color:#FF928E"/>
				<stop  offset="1" style="stop-color:#FE7062"/>
			</linearGradient>
			<path style="fill:url(#SVGID_00000114038528401012212840000011796609748531760308_);" d="M2509.662,3190.684h-570.565
				c-2.007,0-3.634-1.627-3.634-3.634v-102.796c0-2.007,1.627-3.634,3.634-3.634h570.565c2.007,0,3.634,1.627,3.634,3.634v102.796
				C2513.295,3189.057,2511.669,3190.684,2509.662,3190.684z"/>
		</g>
	</g>
</g>
</svg>
